/* XPM */
static char *_5003d0989a7443cafb950931f7e0a64NzG7Bdb3ec9Wao9F[] = {
/* columns rows colors chars-per-pixel */
"32 32 213 2 ",
"   c None",
".  c #0F0600",
"X  c #0E0902",
"o  c #070301",
"O  c #130D03",
"+  c #1C0B00",
"@  c #1B1203",
"#  c #221502",
"$  c #261803",
"%  c #2E1D04",
"&  c #311E03",
"*  c #332104",
"=  c #3C2604",
"-  c #3F2804",
";  c #1A2F2F",
":  c #1A3738",
">  c #3A3923",
",  c #431F00",
"<  c #442B04",
"1  c #492D03",
"2  c #452300",
"3  c #4F3103",
"4  c #493109",
"5  c #523203",
"6  c #5B3802",
"7  c #623B01",
"8  c #693E01",
"9  c #753D00",
"0  c #3E4B3E",
"q  c #25453D",
"w  c #55471B",
"e  c #6D4201",
"r  c #744500",
"t  c #7A4500",
"y  c #7B4A00",
"u  c #714A0A",
"i  c #734F10",
"p  c #775817",
"a  c #654914",
"s  c #635122",
"d  c #745C25",
"f  c #77622A",
"g  c #746E3A",
"h  c #3C4444",
"j  c #3E4C4C",
"k  c #25504E",
"l  c #2F5655",
"z  c #2E7877",
"x  c #27696A",
"c  c #434D4D",
"v  c #445554",
"b  c #4B5959",
"n  c #485454",
"m  c #4B705E",
"M  c #56785A",
"N  c #446651",
"B  c #7A7E4B",
"V  c #667C52",
"C  c #4D6565",
"Z  c #536A6A",
"A  c #516463",
"S  c #5B7F6C",
"D  c #407C72",
"F  c #5E7879",
"G  c #546B70",
"H  c #854700",
"J  c #834E00",
"K  c #8A4C00",
"L  c #924F00",
"P  c #865000",
"I  c #8B5300",
"U  c #83540A",
"Y  c #925400",
"T  c #9C5700",
"R  c #955A02",
"E  c #9B5B00",
"W  c #885911",
"Q  c #A45D00",
"!  c #A95E00",
"~  c #8C6014",
"^  c #86621C",
"/  c #906111",
"(  c #97650E",
")  c #A46507",
"_  c #A5701B",
"`  c #926B22",
"'  c #977A36",
"]  c #857030",
"[  c #A27424",
"{  c #50917F",
"}  c #558870",
"|  c #6F9272",
" . c #758962",
".. c #87804C",
"X. c #999258",
"o. c #849073",
"O. c #91966A",
"+. c #AA9C64",
"@. c #9CA77C",
"#. c #A9A979",
"$. c #3C8181",
"%. c #378887",
"&. c #36908E",
"*. c #308D90",
"=. c #3C9C9B",
"-. c #399495",
";. c #3B9DA1",
":. c #3CA2A3",
">. c #3CA9A0",
",. c #5D8483",
"<. c #48958A",
"1. c #4A9695",
"2. c #618887",
"3. c #6B989A",
"4. c #6D9499",
"5. c #42A09F",
"6. c #52A19C",
"7. c #4BB29F",
"8. c #6AB09C",
"9. c #6C9CA0",
"0. c #43A5A4",
"q. c #45A8A7",
"w. c #45A9A9",
"e. c #4BB0A9",
"r. c #57B9A5",
"t. c #4EB0B0",
"y. c #6DAAA3",
"u. c #73A4A4",
"i. c #74ABAB",
"p. c #7BACAD",
"a. c #62BAA3",
"s. c #7CB8AD",
"d. c #7EBBBA",
"f. c #79CBAB",
"g. c #52C4C4",
"h. c #7FC3C2",
"j. c #6EC7C5",
"k. c #79E3D0",
"l. c #66E0E1",
"z. c #6EFFFF",
"x. c #75FFFF",
"c. c #7BFFFF",
"v. c #70F6F4",
"b. c #7FEAE4",
"n. c #99B593",
"m. c #84A69D",
"M. c #92BDA2",
"N. c #83BBBA",
"B. c #85BDA6",
"V. c #9AC391",
"C. c #8BC5BA",
"Z. c #92D8BA",
"A. c #B6CEB4",
"S. c #A9D3BC",
"D. c #ABC7AA",
"F. c #89C6C6",
"G. c #96CDCA",
"H. c #9AD7CD",
"J. c #8DD2D2",
"K. c #89D6D5",
"L. c #94D8D7",
"P. c #94DDDE",
"I. c #98D8D6",
"U. c #9AE8D9",
"Y. c #9AF1D8",
"T. c #A2E3DB",
"R. c #B1E0D0",
"E. c #ABFCD9",
"W. c #AAFDD4",
"Q. c #B7FAD8",
"!. c #BCFBCD",
"~. c #8FE7E4",
"^. c #94E6E4",
"/. c #9BE6E5",
"(. c #9AEBE4",
"). c #96EAEB",
"_. c #9BEBEB",
"`. c #9AE5E8",
"'. c #84F0EC",
"]. c #9CF0EF",
"[. c #9DEFF0",
"{. c #84FFFF",
"}. c #8BFFFF",
"|. c #9BF2F2",
" X c #92FFFF",
".X c #9CFEFE",
"XX c #96FBF6",
"oX c #A0E4E3",
"OX c #A4ECEC",
"+X c #A1EBE3",
"@X c #A9F5E7",
"#X c #ACFAE9",
"$X c #B8F6EB",
"%X c #A4F4F4",
"&X c #AAF5F5",
"*X c #A4FDFD",
"=X c #ABFFFF",
"-X c #ACFFF1",
";X c #B4F6F5",
":X c #B4FFFF",
">X c #BBFFFE",
",X c #C9FED8",
"<X c #C0F7E1",
"1X c #D8FFE8",
"2X c #C1F6F2",
"3X c #C3FFFF",
"4X c #CBFFFF",
"5X c #CFF7F6",
"6X c #D3FFFF",
"7X c #DCFFFF",
"8X c #DCFFF1",
"9X c #E3FFFF",
"0X c #E4FFFA",
/* pixels */
"                        @ % = 1 1 - * @                         ",
"                  O = 6 e e r r e r e e 6 2 +                   ",
"              X 1 e r t y y P P J J y t t d | 6.k               ",
"            $ 7 r r J P I Y R Y Y L ` O.C.XX}.}.c.l.1.          ",
"          * e r y I Y E T Q Q [ +.S.;X:X=X*X.X X}.c.k.l         ",
"        * r r P Y Y T Q _ +.A.2X3X4X3X3X>X:X=X=XXXd.,.0         ",
"      $ e t P Y T _ +.A.2X4X4X4X4X4X6X4X4X3X3X$XC.u.9.g &       ",
"    . 7 9 H ~ X.D.$X3X4X4X6X6X6X7X6X6X6X6X6X$XH.F.N.i.f 8 @     ",
"    , i B M.OX:X3X3X4X6X6X6X7X7X7X7X7X7X0X<XT.I.H.F.N.f t 5     ",
"  l 8.b. X*X:X>X3X4X6X6X7X7X7X7X7X7X9X8XQ.OXOXoXI.G.N.^ H e #   ",
": g.x. X.X=X>X3X4X6X6X7X7X7X7X9X9X0X1XQ.;X&XOXOXoXL.N./ P r 1   ",
"o q $.j.*X>X3X4X4X6X6X7X7X7X7X9X0X,X@X;X&X&XOXOX`.P.N.E I y 7 X ",
"+ w x z 1.K.2X6X6X7X7X7X7X9X7X8X,XC.4.I.OX&X%X_._.P.oX[ Y J e $ ",
"% r N z %.*.e.J.5X9X7X9X7X9X1X!./.F b G /.&X%XOX/.oX3X#.L J r = ",
"= t p $.&.-.=.;.t.K.5X9X9X,XQ.OXF.A b Z *X&X[.OX(.3X4XR.R P r 1 ",
"1 r J M -.=.5.0.0.>.t.J.!.W.J.p.A n b u.,.2.L._.;X4X3X>X' H y 3 ",
"1 r I ~ &.=.0.0.w.w.>.>.f.4.j b F P.Z C v j d.&X6X4X3X:Xn.H y 5 ",
"- r J T V :.1.0.w.w.e.e.Z.G j v v J.d.0 v v y.4X6X4X3X:X+XU r 1 ",
"* r J R ( <.:.0.q.w.>.e.Y.3.C ,.2.j C Z p.h.>X6X4X3X>X:X*X..9 = ",
"@ e y I Q B :.q.0.w.>.7.Y.(.|.p.c c ,.h.|.&X6X6X4X3X>X:X.XB.9 $ ",
"o 6 y I E ) <.:.0.w.w.7.Y.%X*Xi.n n 3.XX;X6X6X4X4X3X:X=X X'.a . ",
"  - y P T ) ] :.5.q.0.r.Y.].[.J.u.,./.3X6X6X4X3X3X>X=X.X X{.m   ",
"  @ e y I E ) { :.5.>.r.(._._._.[.oX4X6X4X4X4X3X>X:X=X.X{.x.t.  ",
"    1 y J R ) ] ;.5.>.a.(.).).^.;X6X4X4X4X3X3X>X:X*X.X}.c.z.x.; ",
"    O e y P R Q } ;.=.r.(.~.(.3X4X4X4X3X3X>X>X:X=X.X X{.v.g.<.  ",
"      % r y I E ^ &.-.a.K.OX3X3X3X3X>X>X>X>X=X*X.X~.B. .>       ",
"        - r y I R S *.a.@X>X>X>X>X:X:X:X:X*XT.n...p 9 2         ",
"          - r y K p z f.E.E.E.#X-X-X@XS.@.' I H t t 1           ",
"            * e t U D y.G.H.U.Z.V.X.` Y L K y y e =             ",
"              @ 5 u S y.m.o.] W K K J J y y r 6 @               ",
"                  # 4 s u 9 t t y y t r e 1 $                   ",
"                      . $ 2 1 3 3 1 - $ O                       "
};
