/* XPM */
static char *_ce3dc2f589f4f798843c1e96b050cf0HTthzrpuzzjum8i8[] = {
/* columns rows colors chars-per-pixel */
"16 16 203 2 ",
"   c None",
".  c #0C0801",
"X  c #230B00",
"o  c #241702",
"O  c #2D1200",
"+  c #2B1600",
"@  c #281902",
"#  c #2C1A00",
"$  c #2C1B02",
"%  c #2E1C02",
"&  c #301900",
"*  c #331F01",
"=  c #321F02",
"-  c #352101",
";  c #3A2402",
":  c #322811",
">  c #122526",
",  c #323925",
"<  c #402200",
"1  c #422B05",
"2  c #4E2A00",
"3  c #4D2F02",
"4  c #522C00",
"5  c #4F3002",
"6  c #523201",
"7  c #553100",
"8  c #533406",
"9  c #5D3800",
"0  c #5D3802",
"q  c #613100",
"w  c #633300",
"e  c #643500",
"r  c #653600",
"t  c #613800",
"y  c #613900",
"u  c #613B01",
"i  c #663E01",
"p  c #693900",
"a  c #6D3900",
"s  c #674105",
"d  c #7A4400",
"f  c #7B4500",
"g  c #7E4B00",
"h  c #775E1D",
"j  c #636739",
"k  c #7C7639",
"l  c #3F4A4E",
"z  c #3D4F4E",
"x  c #275755",
"c  c #366D64",
"v  c #3F7B77",
"b  c #495B5B",
"n  c #516666",
"m  c #577878",
"M  c #597878",
"N  c #5D7A7C",
"B  c #6F7D65",
"V  c #844800",
"C  c #864900",
"Z  c #864B00",
"A  c #814D00",
"S  c #834E00",
"D  c #8B4B00",
"F  c #884D00",
"G  c #8D4D00",
"H  c #8E4C00",
"J  c #8B5100",
"K  c #8C5705",
"L  c #8F5E0E",
"P  c #925100",
"I  c #9A5500",
"U  c #9B5900",
"Y  c #A05F02",
"T  c #916213",
"R  c #836120",
"E  c #8A6A29",
"W  c #936B23",
"Q  c #86732E",
"!  c #A67828",
"~  c #55856B",
"^  c #51837A",
"/  c #55947E",
"(  c #67886C",
")  c #67917E",
"_  c #93813C",
"`  c #95925E",
"'  c #848F6B",
"]  c #8F9061",
"[  c #859A74",
"{  c #93A272",
"}  c #A9A26D",
"|  c #B0A773",
" . c #378385",
".. c #339396",
"X. c #3C9E9D",
"o. c #3A9FA3",
"O. c #3FA6A5",
"+. c #3CA4A8",
"@. c #3DA7AB",
"#. c #4B8F81",
"$. c #5E8686",
"%. c #429090",
"&. c #6B9091",
"*. c #6A9494",
"=. c #6E9B9D",
"-. c #52A59A",
";. c #6AA894",
":. c #40A5A7",
">. c #4BAEA7",
",. c #44A8A8",
"<. c #51A6A7",
"1. c #4EB3A6",
"2. c #46B3A8",
"3. c #4EB5A9",
"4. c #52B4A8",
"5. c #5DB8B6",
"6. c #6EC3BA",
"7. c #69D9DB",
"8. c #ABBD9A",
"9. c #93B7A1",
"0. c #81BABA",
"q. c #86C0BF",
"w. c #95CDB7",
"e. c #93C9B8",
"r. c #96CFB9",
"t. c #84D1BF",
"y. c #A4C5A8",
"u. c #88D3C5",
"i. c #95D6C9",
"p. c #8DD1D0",
"a. c #98D3D3",
"s. c #91D4D9",
"d. c #93DEDE",
"f. c #98D9D9",
"g. c #99DDDC",
"h. c #B8D9C3",
"j. c #BCD8C0",
"k. c #A5DFDE",
"l. c #97E6E3",
"z. c #98E7E6",
"x. c #95E9E2",
"c. c #97E4E9",
"v. c #99ECED",
"b. c #9EF6EB",
"n. c #9DEDF2",
"m. c #8DF9F5",
"M. c #80FFFF",
"N. c #8FFEF8",
"B. c #9EF7F4",
"V. c #9BFFFF",
"C. c #A1E3E0",
"Z. c #AEEEE2",
"A. c #A5EDED",
"S. c #AEFCE8",
"D. c #B3F1EA",
"F. c #BCFDED",
"G. c #A4F2F2",
"H. c #AAF4F3",
"J. c #A8F5F5",
"K. c #A8FFFF",
"L. c #AAFFFF",
"P. c #ADFFFF",
"I. c #B0F4F4",
"U. c #B2F9F5",
"Y. c #B3FFF9",
"T. c #B7FFFA",
"R. c #B2FFFF",
"E. c #B3FFFF",
"W. c #B4FFFF",
"Q. c #B8F9FB",
"!. c #BAFCFA",
"~. c #BAFBFC",
"^. c #B8FFFF",
"/. c #BEFFFF",
"(. c #C4F8E1",
"). c #C1F8EB",
"_. c #C0F6F0",
"`. c #C2FFFF",
"'. c #C3FFFF",
"]. c #C5FFFF",
"[. c #C6FFFF",
"{. c #CAFBF9",
"}. c #CBFCFC",
"|. c #CAFFFF",
" X c #CDFFFF",
".X c #CEFFFF",
"XX c #CFFFFF",
"oX c #D9FFF6",
"OX c #DDFFF6",
"+X c #D0FFFF",
"@X c #D1FFFF",
"#X c #D2FFFF",
"$X c #D3FFFF",
"%X c #D5FDFD",
"&X c #D5FFFF",
"*X c #D9FFFF",
"=X c #DFFFFC",
"-X c #DCFFFF",
";X c #DDFFFF",
":X c LightCyan",
">X c #E3FFFF",
",X c #E4FFFF",
"<X c #E5FFFF",
/* pixels */
"          $ 3 0 0 2 O           ",
"      o u g F D J E [ 6.%.      ",
"    * f H U ! | h.!.W.K.N.^     ",
"  X f W } j.{.#X%X#X#XD.q.B +   ",
"> ( r.U.[.#X*X-X-X>X).C.s.' p   ",
"x 7.L.|.#X*X-X>XOXF.H.A.c.] V * ",
"1 c <.g.%X<X<XoXe.&.H.G.n.8.H 6 ",
"r j ..X.5.k.(.i.N n 0.c.Q.F.T u ",
"e K #.O.O.2.;.l *.M z a.#X/.` q ",
"5 P k @.,.3.u.=.b $.p.}.XXW.w.4 ",
"$ S Y / @.1.b.d.M f.XX#X`.P.m., ",
"  i I Q o.4.x.v.I.XXXX`.W.V.M. .",
"  @ S U ~ >.l.Q.|.[./.R.B.t.m   ",
"    ; C h -.S.T.Y.Z.y.` R <     ",
"      @ s ) 9.{ _ L C a &       ",
"          : 8 w e 7 - .         "
};
