/* XPM */
static char *feaa7d2613a646a397e1b450482b4e44PfdY0HKXFretqGu2[] = {
/* columns rows colors chars-per-pixel */
"64 64 248 2 ",
"   c None",
".  c #060503",
"X  c #0A0703",
"o  c #0C0904",
"O  c #130E05",
"+  c #110400",
"@  c #1C1306",
"#  c #171005",
"$  c #0D1413",
"%  c #211606",
"&  c #261906",
"*  c #2A1C06",
"=  c #221C0D",
"-  c #301F06",
";  c #342207",
":  c #3B2607",
">  c #3F2907",
",  c #352D17",
"<  c #142828",
"1  c #3A3B3C",
"2  c #363838",
"3  c #203431",
"4  c #442B06",
"5  c #492F06",
"6  c #472500",
"7  c #4D3106",
"8  c #543405",
"9  c #5D3A04",
"0  c #5A3603",
"q  c #633D03",
"w  c #6A3F00",
"e  c #683500",
"r  c #733E00",
"t  c #793E00",
"y  c #403E3E",
"u  c #5C4B1D",
"i  c #6D4100",
"p  c #6C460C",
"a  c #734500",
"s  c #7B4500",
"d  c #7B4A00",
"f  c #744904",
"g  c #795614",
"h  c #69501A",
"j  c #6B6636",
"k  c #7A7337",
"l  c #796A36",
"z  c #5C5024",
"x  c #3C4343",
"c  c #3D4C4C",
"v  c #354141",
"b  c #2D5351",
"n  c #296667",
"m  c #356D6B",
"M  c #2D7475",
"N  c #377978",
"B  c #2C706F",
"V  c #1E4746",
"C  c #424C4C",
"Z  c #4A4C4C",
"A  c #424545",
"S  c #435252",
"D  c #4A5454",
"F  c #465A5A",
"G  c #4B5A5A",
"H  c #555A5A",
"J  c #506D52",
"K  c #767C4A",
"L  c #697250",
"P  c #4D6363",
"I  c #4D6B6A",
"U  c #536767",
"Y  c #537372",
"T  c #5B7C7C",
"R  c #577B78",
"E  c #547368",
"W  c #465E60",
"Q  c #824D00",
"!  c #8C4D00",
"~  c #834500",
"^  c #865000",
"/  c #8C5300",
"(  c #84590E",
")  c #925500",
"_  c #9B5600",
"`  c #955900",
"'  c #9B5C00",
"]  c #935D0B",
"[  c #8B580D",
"{  c #A45C00",
"}  c #976715",
"|  c #906213",
" . c #A36101",
".. c #AC6100",
"X. c #A4680C",
"o. c #A16D17",
"O. c #856927",
"+. c #957938",
"@. c #91722D",
"#. c #39817D",
"$. c #6E825B",
"%. c #558879",
"&. c #528670",
"*. c #7A9879",
"=. c #64816F",
"-. c #66D47E",
";. c #A3843E",
":. c #948A53",
">. c #898657",
",. c #A58B4A",
"<. c #8C966C",
"1. c #96A579",
"2. c #A3A375",
"3. c #2F7D82",
"4. c #358484",
"5. c #3A8C8B",
"6. c #36898A",
"7. c #3C9493",
"8. c #3E9B9A",
"9. c #399698",
"0. c #368C8D",
"q. c #399EA2",
"w. c #3DA5A5",
"e. c #3CA09E",
"r. c #5C8887",
"t. c #419E9C",
"y. c #459895",
"u. c #4D9789",
"i. c #628C8B",
"p. c #628686",
"a. c #6C9B9B",
"s. c #679595",
"d. c #678F91",
"f. c #41A19E",
"g. c #43A697",
"h. c #51AB8E",
"j. c #6DA893",
"k. c #43A4A3",
"l. c #45A8A7",
"z. c #42A6AB",
"x. c #45AAA9",
"c. c #4DA7A7",
"v. c #54B2B1",
"b. c #6EA9A6",
"n. c #75A6A6",
"m. c #78B7AA",
"M. c #68BAB9",
"N. c #7AB5B5",
"B. c #7AAFB5",
"V. c #6DCD97",
"C. c #78E38C",
"Z. c #75C5BA",
"A. c #75D6A4",
"S. c #5BC3A7",
"D. c #6FBCC1",
"F. c #74C9C7",
"G. c #75E5D7",
"H. c #74EBEB",
"J. c #6CFFFF",
"K. c #6AF9F9",
"L. c #74FFFF",
"P. c #7CFFFF",
"I. c #7EFFF6",
"U. c #6AEDEB",
"Y. c #95B191",
"T. c #ADBA97",
"R. c #A7B28A",
"E. c #86BAA9",
"W. c #85BAB9",
"Q. c #92BABA",
"!. c #8DB2AE",
"~. c #A3BFA5",
"^. c #90F393",
"/. c #8BC7BB",
"(. c #97C3BD",
"). c #8ED0AF",
"_. c #98F2AE",
"`. c #B8FEB5",
"'. c #ABFBA6",
"]. c #A8DF9B",
"[. c #C3FFB8",
"{. c #8AC5C5",
"}. c #88C9C7",
"|. c #92CBCB",
" X c #8AD2CA",
".X c #99D6C9",
"XX c #8CD5D5",
"oX c #8DDCDB",
"OX c #8AD5D7",
"+X c #94D4D4",
"@X c #94DCDB",
"#X c #9BDCDC",
"$X c #99D8D5",
"%X c #A6D8C8",
"&X c #AADED4",
"*X c #9BEDD3",
"=X c #A3E9CB",
"-X c #A6F8CC",
";X c #ABFFDC",
":X c #A7FBD6",
">X c #B0ECD6",
",X c #94DDE2",
"<X c #94E5E4",
"1X c #9CE4E3",
"2X c #96EAEA",
"3X c #9BECEC",
"4X c #9BE8E7",
"5X c #9EF0EF",
"6X c #9EF1E1",
"7X c #83FFFF",
"8X c #8BFEFF",
"9X c #80F7F7",
"0X c #9EF3F2",
"qX c #93FFFF",
"wX c #9CFFFF",
"eX c #95F6F6",
"rX c #92EFEC",
"tX c #A2E5E4",
"yX c #A3ECEC",
"uX c #AAEDED",
"iX c #A7E8E6",
"pX c #B4EBE9",
"aX c #A9F8E9",
"sX c #B1FFEC",
"dX c #A4F3F2",
"fX c #ABF3F3",
"gX c #ADF5FC",
"hX c #A3FFFF",
"jX c #ABFEFE",
"kX c #A7F7F8",
"lX c #B3FFF3",
"zX c #B4FFFE",
"xX c #BCFFFF",
"cX c #B7F6F5",
"vX c #A7EDF1",
"bX c #CAFFC6",
"nX c #D4FFD5",
"mX c #C4FBD9",
"MX c #DAFFE5",
"NX c #C3FFFF",
"BX c #CCFFFF",
"VX c #D3FFFF",
"CX c #DCFFFF",
"ZX c #DCFFF2",
"AX c #C4FEEB",
"SX c #E2FFFF",
"DX c #E5FFFB",
"FX c #E0FFED",
/* pixels */
"                                                        o # @ % & @ # O X                                                       ",
"                                              o % ; 5 8 9 9 q q 9 i 9 9 8 7 : * O                                               ",
"                                        o * 5 9 w i i w i i i i i i i i i i i i q 8 ; $                                         ",
"                                    # : 9 w i w i i i a a a a a a a a a i i i i w w w q 5 %                                     ",
"                                O 4 q w i i i a a f d d d d d ^ Q Q Q d d f f s a w w e e h J 3                                 ",
"                              ; 9 w w w i a d f d Q ^ ^ ^ ^ ^ / ^ ^ ^ Q ^ ^ Q d s r g K N.H.L.L.M.m <                           ",
"                          # 7 w w i a f d d ^ ^ ^ / / / / / ) / ) / ) / / ! ! ( >.E.rX8X7X7XP.P.L.L.K.c.b                       ",
"                        & 9 w i a a d d ^ ^ / / ) ) ` ` ' ` ' ' ' _ _ ) | >.~.3XhXhXqXqXqX8X8X7XP.L.L.L.7XH.r.                  ",
"                      ; q i i a d d ^ ^ / / ) ` ` ' ' ' ' { ' { ' } ,.~.uXzXzXjXjXhXhXhXwXqXqX8X8X7XP.L.I.G.b.$                 ",
"                    : w i i a d d ^ / / ` ' ' ' '  . ...{ { o.,.~.pXxXxXxXzXzXzXzXjXjXhXhXwXwXqX8X8X7X9XA.T u.                  ",
"                  : w i a f d Q / / ) ` ' '  . ...{ { X.,.T.pXNXNXNXNXxXNXxXxXxXxXzXzXzXjXjXhXhXwXqXrXV.%.T T $                 ",
"                ; i w i a d ^ / / ` _ '  . . .{ X.,.T.pXNXBXNXNXNXBXNXBXNXNXNXNXNXxXxXxXzXzXjXhXhX6XE.d.d.i.E 5                 ",
"              & w w i d d ^ / ) _ ' ' { { X.;.T.>XNXNXBXBXNXBXBXBXBXBXBXBXBXBXBXNXNXNXxXxXxXcXzX=XE.n.a.s.s.r.e 4               ",
"            O q w a f d ^ / ) ` _ _  .,.R.>XNXNXBXBXNXBXBXBXBXVXVXBXVXVXVXBXBXBXBXBXBXBXNXNXNX=X/.W.W.n.n.a.T r w *             ",
"            7 w i a d ^ ^ ! ) ' +.R.&XxXNXNXNXNXBXBXBXVXVXVXVXVXVXVXVXVXVXVXVXVXBXVXBXBXBXAX=X|.{.{.W.B.n.b.L r w q O           ",
"          ; i i a d ~ ! / @.R.%XzXxXNXxXNXBXBXBXBXBXVXVXVXVXCXVXCXVXCXVXVXVXCXVXVXVXVXVXmX=X+X+X|.}.W.!.!.D.L a i w 7           ",
"        o 9 i r s s O.<..XhXjXzXxXxXNXNXBXBXBXBXVXVXVXVXCXCXVXCXCXCXCXCXCXCXCXVXCXSXZXmX&X1X#X$X+X|.{.W.N.N.K t a w w &         ",
"        6 e e j *./.eXhXjXjXzXxXxXNXNXNXBXBXVXVXVXVXCXVXVXCXCXCXCXCXCXCXCXCXCXCXCXFX-XtXyXtX&X#X+X+X|.{.W.N.K ~ s a i 8 .       ",
"      O u $.Z.9X8XqXwXhXjXzXzXxXxXNXBXBXBXVXVXVXVXVXCXCXCXCXCXCXCXCXCXCXCXCXCXSXMX-XuXvXyXtX1X#X#X+X|.}.W.{.@.! d a i w -       ",
"  < m v.U.L.7X8XqXqXhXjXjXzXxXNXNXBXBXBXVXVXVXVXCXVXCXCXCXCXCXCXCXCXCXCXSXCXCXnX-XpXvXvXiXiXiXtX#X$X+X|.{.F.l / Q d a w 8       ",
"  y.J.J.J.P.7X8XqXwXhXjXzXzXNXNXBXBXBXBXVXVXVXCXCXCXVXCXCXCXCXCXSXSXCXSXSXDXbX>XcXfXfXuXuXyXiXtX#X#X+XXX}.W.| / ^ d a i i %     ",
"  < n x.H.7X8X8XwXhXjXzXxXxXNXNXBXBXVXVXVXCXVXCXCXCXCXCXSXCXSXSXSXCXSXSXZX`.:XgXfXfXfXfXuXyXyX4X1X,X@X+X XW.| ) ^ Q s a w 4     ",
"    V b m v.rXqXhXhXjXzXxXxXNXBXBXBXVXVXVXVXCXCXCXCXCXCXCXSXSXCXSXSXSXnX`.aXgXfXfXfXfXuXuXdXyXyX1X1X@X+XXXW.' ` / ^ d a i 9 o   ",
"  + , b n n N M.3XzXzXzXxXNXNXBXBXVXVXVXCXCXVXCXCXCXSXCXSXCXSXSXSXDXnX_.yXzXcXfXfXfXfXfXuXuXyX4XtX1X@X+XOX!.' ' ) / d f i i %   ",
"  % w b n B M M 5.M.uXNXNXNXBXBXBXVXVXVXVXCXCXCXCXCXSXCXSXCXSXSXDX[.-XW.p.uXzXzXkXfXfXdXuXuXyXyX4X1X@X@XOX&Xo._ ) / ^ d i i :   ",
"  : a u n B M 4.4.4.7.Z.uXBXVXBXVXVXVXCXCXCXCXCXCXCXSXCXCXSXSXMX'.-XgXn.Z s.{.B.#XfXdXfXdXdXyX3X4X1X<X@X#XNX2.{ ` / ^ d a i 7   ",
"  5 i a J M M 4.5.5.7.0.e.Z.pXVXCXVXCXVXCXCXCXCXCXCXCXSXSXSXbX'.aXkXs.Y H H D D |.kXdXdXdXyX3XyXyX1X,X#XcXNX%X{ ' / / d a i 9 o ",
". 8 w s h M 3.4.6.5.7.8.8.9.f.F.pXCXCXCXCXCXCXCXSXSXCXCXSX`.'.fXzX|.H Z Y Y D n.4XfXdXdXyXdXyX3X4X4X@XcXBXNXxX@.` ) / d f i q # ",
"o 9 i a Q J 4.4.5.7.7.y.f.f.f.f.k.F.iXCXSXCXCXSXCXCXDXDX'.'.gXjXzX}.D D P H A T 5XfXdXdXdX0X3XyX3X<XuXBXBXxXxX2.) ` ^ ^ d i i @ ",
"O q i a Q g M 4.6.7.7.8.f.f.f.l.k.q.w.Z.iXSXSXCXSXSXMX^.-XgXfX+XB.@Xi.C T D 2 i.jXkXkXdX5XyXdX3X4X4XBXBXNXxXxX&X' ) / d s i i * ",
"@ q i d Q ) J 6.6.7.7.8.f.f.k.k.l.l.l.w.k.M.iXVXDXbX^.aXgXfXfXp.Z G D C Z P T n.B.N.OXr.{.dXyX3X1XcXVXBXBXNXxXzX;./ / ^ d i i - ",
"% w i a Q ! / %.5.7.7.y.f.f.k.l.l.l.x.x.x.k.w.D._.'.lXyXN.s.,Xi.Z T G v 2 Y dXs.1 c %.2 {.0X3X4XfXVXBXBXNXxXxXxXY.) / ^ d i i ; ",
"@ i i a ^ / ' j 0.7.7.8.t.k.k.k.x.x.x.x.x.x.x.w.-.aX1Xa.A 2 Y P Z {.4Xa.C y d.R 2 c v S @XdX4X4XBXVXBXBXNXNXxXzXiX] / Q d a w ; ",
"@ i i d d / ) ] %.9.y.8.t.f.k.l.x.x.x.x.x.x.x.w.C.W.W P 2 C G x C a.kXjXN.x v c Y P R 2 r.<X3XNXVXVXBXNXNXxXxXzXhX:.! Q d a w ; ",
"O i i d d / ` ' j 9.7.8.t.k.k.k.l.l.x.x.x.x.x.x.C.}.F 2 R S i.v 2 S @XjXdXY v x r.C P c v b.zXVXVXBXBXBXNXxXzXzXjX).! Q f a w * ",
"o 8 i d d / ` ' ` u.8.y.t.f.k.l.l.l.x.x.x.x.x.x.C.lXXXc c W c I F 2 %. XkXa.x c c x 2 d.N.XXVXVXVXBXBXNXNXxXxXzXhX0X[ ~ f i i % ",
". 8 p f d / ` `  .k 9.8.t.f.k.k.l.l.l.l.x.x.x.x.^.kX Xx S 2 2 r.OXG 1 F s.r.A T b.F T  X0XNXVXVXBXBXBXNXNXxXzXjXhXwX<.~ s i i # ",
"  7 i a d ^ / ` ' ..&.8.t.f.f.k.l.l.x.x.x.x.x.x._.kXb.F N.T T B.N.Y x x 2 x 1 a.3XoX2X2XcXVXVXVXVXBXNXNXxXxXzXjXhXwX/.s s i 9 o ",
"  : i a d d / `  . .O.8.t.t.f.k.f.l.l.x.x.x.x.x._.kXoXoX0X3X5Xi.v C F x R b.I N.0X0X2XyXBXVXVXBXBXBXNXNXNXxXzXjXhXwXeXl r i 8   ",
"  % i a d ^ / ` `  ...=.q.f.f.k.l.l.l.x.x.x.x.g._.kXdXdX5XkX@XP Z D I F Y XX<X2X3X2X3XNXVXVXVXBXBXBXNXNXxXzXjXjXwXwX8X*.r i >   ",
"  O q i f Q ^ ) `  . .@.g.8.f.f.k.l.l.l.l.x.x.h._.eXdX0X5X0X<Xs.S Y F A A B.0X5X2XyXBXVXVXVXBXBXBXNXNXxXxXzXjXhXwXqX8XF.i w &   ",
"    7 i a d ^ / ` '  ...$.8.f.f.f.k.k.l.l.x.w.S.-X0X0X0X5X0X@XY Z H U D Y OX5X2XgXVXVXVXVXBXBXBXBXNXNXxXzXzXjXhXwXqX8XP.j e o   ",
"    ; i i d ^ / ` `  ...} u.e.e.k.k.k.l.w.w.l.V.*X5X3X3X5X5XOXi.a.T D B.oX2XyXAXVXVXBXVXBXBXBXBXNXNXNXxXzXjXhXhXqX8X7XP.j.6     ",
"    o w i f d ^ ` ` '  ...$.e.e.f.k.k.l.l.w.q.V.6X5X3X3X2X5X<X3XeX}.W s.3XfXBXVXVXBXVXBXBXBXBXNXNXxXxXzXjXjXhXwXqX8X7XP.G.=     ",
"      4 i a f Q / ` '  ...} 7.8.f.f.k.l.l.l.w.V.6X3X3X3X3X3X3X3X5X3XF.+XxXVXVXBXBXBXBXBXBXNXNXNXxXxXzXzXjXhXwXqX8X7XL.J.K.V     ",
"      @ i i a Q ^ / ` '  ...K w.t.f.f.f.g.l.w.V.3X4X2X3X3X2X2X2X2X2XfXBXVXBXBXBXBXBXBXBXBXNXNXxXxXxXzXjXhXhXwXqX8XP.L.J.J.c.    ",
"        7 i a d ^ ^ ` ` '  .X.%.8.8.f.f.f.l.w.V.3X2X2X2X2X2X2X2X2XcXVXBXBXBXBXBXBXBXBXNXNXNXxXxXxXzXjXjXhXwXqX8X7XP.J.J.J.K.    ",
"        # i i a d ^ / ) '  ...k 8.8.t.f.f.l.g.A.2X<X<X<X2X<X<X4XxXBXBXBXBXBXBXBXBXNXNXNXNXxXxXxXzXjXjXhXwXqXqX7XP.L.J.K.J.P.Y   ",
"          > i i f Q ^ ) ` ' .. .&.9.e.f.f.f.w.A.2X<X<X<X<X<XuXBXBXBXBXNXBXNXBXNXNXNXNXNXxXxXxXzXjXjXhXwXqXqX7X7XL.J.J.J.L.F.m   ",
"          o 9 i a d ^ ^ / ` ' { O.7.7.8.8.8.g.A.<XoXoXoX<XcXBXNXNXNXNXNXNXNXNXNXNXxXxXxXxXzXzXjXhXhXwXwXqX8X7XP.L.U.v.m 3       ",
"            @ i i a d Q / ) ` '  .&.9.7.7.t.g.).oXoXoX3XNXNXNXNXNXNXNXNXNXNXNXxXxXxXxXzXzXjXjXhXhXwXwXqXeX7XG.b.L ,             ",
"              ; i i a d ^ / / ` ' O.0.0.7.7.u.A.OXXXuXxXxXNXxXNXNXNXNXxXxXxXxXxXxXzXzXzXjXjXhXwXwXwX9X Xj.l p e 6               ",
"                5 i i f d ^ ^ / ` ' E 9.0.7.u.A.OXfXNXxXxXzXxXxXxXxXxXxXxXzXzXzXzXzXjXjXjXhXhX2X/.<.O.s r r i 0 o               ",
"                . 7 i i a d ^ / / ' | #.0.0.u..XaXlXsXsXlXlXxXlXlXzXzXlXzXzXzXzXjXjXjXhX1XY.:.| ! ~ s d i i 9 O                 ",
"                  X 7 i i d d d ^ / / J 6.4.u.-X:X:X;XaX;XsXsXsXsXsXlXsXsXjXzXjXkX%XY.+.] ! ! ! ~ d f i i 9 O                   ",
"                    . 5 i i a d d ^ / g N 3.u.=X=X-X=X:X:X:X-X;X;X;X;XaXaX>X).<.@._ ! ) / / ^ d d a i a 0 O                     ",
"                        : i i a a d Q ^ E M h..X|.).=X.X.X=X=X>X:X:X).~.:.} ) ) ) ) / ^ ^ ^ d d a i p 7 o                       ",
"                          & 9 i i f s g s.B u.Q.Q.Q.(.(.|.$X.X).1.+.] / ) ) ) ) / / ^ ^ d d a a i w :                           ",
"                            O 5 i i a h s.N u.!.!.Q.{.Q.Y.>.O./ Q ! / / / / Q Q Q d d f a a i i 8 @                             ",
"                                & 8 w i J %.j.D.n.*.K g ~ d ^ ^ ^ ^ ^ ^ ^ ^ d ~ d d a a i i 9 ; .                               ",
"                                  . & 8 e p L j f r r s d d d d d d d d f d a a a i i i 9 ; o                                   ",
"                                        % 6 0 w r a i a a a a a a a a i a i a i i q 7 & .                                       ",
"                                            . % : 7 9 w i i i i i i i i w 9 8 > & o                                             ",
"                                                    . O @ & ; ; ; ; * % # o                                                     "
};
